<?xml version="1.0" encoding="UTF-8" standalone="no"?>
<svg
   xmlns:dc="http://purl.org/dc/elements/1.1/"
   xmlns:cc="http://creativecommons.org/ns#"
   xmlns:rdf="http://www.w3.org/1999/02/22-rdf-syntax-ns#"
   xmlns:svg="http://www.w3.org/2000/svg"
   xmlns="http://www.w3.org/2000/svg"
   width="40mm"
   height="40mm"
   viewBox="0 0 40 40"
   version="1.1"
   id="svg8">
  <defs
     id="defs2" />
  <metadata
     id="metadata5">
    <rdf:RDF>
      <cc:Work
         rdf:about="">
        <dc:format>image/svg+xml</dc:format>
        <dc:type
           rdf:resource="http://purl.org/dc/dcmitype/StillImage" />
        <dc:title></dc:title>
      </cc:Work>
    </rdf:RDF>
  </metadata>
  <g
     id="layer1"
     transform="translate(-24.802482,-76.624528)">
    <g
       style="fill:#000000;stroke-width:0.56549764"
       id="g828"
       transform="matrix(0.46787695,0,0,0.46787695,21.510896,72.924408)">
      <path
         id="path817"
         d="m 36.24,64.68 c -2.89,2.71 -6.06,5.58 -9,8.36 -1.16,1.08 -2.34,2.13 -3.53,3.17 a 1.48,1.48 0 0 0 -0.59,1.93 c 0.61,1.66 -0.93,4.13 -2.72,4.82 A 4.42,4.42 0 0 1 15.61,81.7 4.89,4.89 0 0 1 14.33,78 3.56,3.56 0 0 1 17.78,74.7 c 1.78,0.12 3.36,0 4.77,-1.41 3.19,-3.29 6.45,-6.45 9.83,-9.45 1.52,-1.33 2,-1.63 1.74,-2.07 a 18.36,18.36 0 0 1 -2.73,-7.69 c -0.05,-0.38 -4.85,0 -6.88,0.11 a 1.33,1.33 0 0 0 -1,0.61 3,3 0 0 1 -2.78,2.38 4.05,4.05 0 0 1 -4.08,-1.88 4.25,4.25 0 0 1 0.29,-5.82 3.66,3.66 0 0 1 4.78,0.17 c 1.38,1.64 2.86,1.55 4.83,1.58 1.67,0 3,0 4.58,0 0.07,-1.66 1,-6.77 2,-8.38 0.09,-0.24 -11.53,-6.48 -15,-8.4 a 1.62,1.62 0 0 0 -2.21,0.27 c -1.55,1.36 -3.45,1.06 -5.24,0.28 a 3.25,3.25 0 0 1 -2,-3.5 c 0.1,-2.22 2.13,-4.6 4,-4.63 a 4.19,4.19 0 0 1 4.09,3.5 c 0.1,0.41 0.25,1 0.55,1.13 q 5.34,3 10.74,5.81 c 2.07,1.1 4.27,2.21 6.3,3.23 a 22.58,22.58 0 0 1 4.42,-4.82 c -1.21,-1.76 -2.58,-3.78 -4,-5.65 a 4.22,4.22 0 0 0 -2.16,-0.91 c -1.85,-0.47 -2.88,-3.54 -2.47,-5.26 0.34,-1.43 2.12,-1.81 3.17,-2 3.34,-0.58 5.3,2.63 4.22,5.83 a 1.66,1.66 0 0 0 0,1.22 c 1.1,1.79 2.17,3.34 3.43,5.26 a 21.14,21.14 0 0 1 8.12,-2.6 c 0,0 0.57,-8.32 0.71,-11.95 a 1.34,1.34 0 0 0 -0.58,-0.9 c -0.58,-0.42 -1.29,-0.67 -1.85,-1.12 -1.7,-1.39 -2.2,-3.6 -0.84,-5.29 0.68,-0.86 3,-1.45 4.2,-1.65 a 4.56,4.56 0 0 1 4.52,2.3 c 0.79,1.61 -0.33,4.14 -1.6,5.35 a 2.41,2.41 0 0 0 -0.79,1.32 c -0.34,3.61 -0.89,11.85 -0.78,11.85 a 18.93,18.93 0 0 1 8.31,2.35 c 0.23,0.13 1.7,-2.37 2.37,-3.28 1.05,-1.4 1.5,-1.38 1.54,-2.52 0.29,-1.89 0.91,-4.87 2.7,-5.84 2.37,-1.28 5.81,0.32 6.23,2.23 0.56,2.5 0.17,5.2 -2,5.88 a 13.62,13.62 0 0 1 -3.91,0.64 c -0.4,0 -1,-0.17 -1.17,0 -0.93,1.16 -3.36,4.35 -3,4.57 2,1.29 5.7,5.7 6.44,8.65 3.81,-1.59 7.76,-3.16 11.49,-4.85 0.6,-0.27 1,-1.22 1.29,-1.93 a 4.49,4.49 0 0 1 3.3,-2.32 5.33,5.33 0 0 1 2.84,0.63 c 2.27,1 3,3.63 2.23,5.9 a 3.2,3.2 0 0 1 -4.35,2.25 8,8 0 0 1 -2.62,-1.36 2.09,2.09 0 0 0 -2.35,-0.36 c -2.93,1.19 -11.14,4.08 -11,4.45 a 21,21 0 0 1 -0.79,12.14 c 2.56,1.14 7.57,3.32 7.62,3.26 1.1,-1.42 3.5,-1.38 4.78,-0.7 A 4.85,4.85 0 0 1 84.92,65 c 0.26,2 -1,4.63 -2.65,4.87 a 5.9,5.9 0 0 1 -6.18,-4.44 c -0.11,-0.52 0.12,-0.82 -0.32,-1.09 -1.2,-0.63 -6.08,-2.84 -7.21,-3.3 A 20.94,20.94 0 0 1 61,68.61 c 0.39,0.76 5.1,8.94 7,12.28 a 2.3,2.3 0 0 0 2.32,1.43 4.94,4.94 0 0 1 4.68,3.77 c 0.41,2 -2.43,4.67 -4.76,4.52 -3.11,-0.21 -5.9,-3.35 -4.43,-6.62 A 2.3,2.3 0 0 0 65.54,82.25 C 63.32,78.14 61,73.9 58.71,69.73 a 20.44,20.44 0 0 1 -12.07,1.12 c -0.49,2.08 -0.8,3.92 -1.4,5.83 -0.6,1.91 -0.18,3.11 1.57,4 1.22,0.63 1.34,2.5 0.8,3.67 a 4.51,4.51 0 0 1 -4.27,2.14 6.12,6.12 0 0 1 -3.57,-1.38 c -1.86,-1.5 -1,-4.94 1.19,-5.87 A 2.1,2.1 0 0 0 41.85,78 c 0.67,-2.34 1.22,-4.71 1.9,-7 0.28,-0.94 0.35,-0.87 0.09,-1 a 20.53,20.53 0 0 1 -7.6,-5.32 z"
         style="stroke-width:0.56549764" />
    </g>
    <g
       style="opacity:1;fill:#000000"
       id="g843"
       transform="matrix(0.26458333,0,0,0.26458333,32.308858,83.712689)">
      <path
         style="opacity:1;vector-effect:none;fill:#ffffff;fill-opacity:1;stroke:none;stroke-width:18.89763832;stroke-linecap:round;stroke-linejoin:miter;stroke-miterlimit:4;stroke-dasharray:none;stroke-dashoffset:0;stroke-opacity:1"
         d="m 162.76809,345.91182 c -1.66662,1.56914 -3.2529,3.22573 -4.88294,4.8341 -0.35165,0.48449 0.15496,0.99215 0.28514,1.47487 0.68039,1.71511 0.75691,3.60941 0.51921,5.38534 -0.21161,1.25344 -0.73082,2.42944 -1.28951,3.55725 -0.13906,0.56051 0.53319,0.84278 0.81858,1.22979 1.51595,1.49735 2.99411,3.03631 4.54434,4.49707 0.41604,0.2519 0.78872,-0.14256 0.89705,-0.52194 1.61613,-3.45534 2.3857,-7.30097 2.17143,-11.11251 -0.11334,-3.17404 -0.95954,-6.30328 -2.34009,-9.15556 -0.1391,-0.25509 -0.47999,-0.3227 -0.72321,-0.18841 z"
         id="path933"
         transform="translate(-92.469363,-306.39442)" />
      <path
         style="opacity:1;vector-effect:none;fill:#ffffff;fill-opacity:1;stroke:none;stroke-width:18.89763832;stroke-linecap:round;stroke-linejoin:miter;stroke-miterlimit:4;stroke-dasharray:none;stroke-dashoffset:0;stroke-opacity:1"
         d="m 170.78975,339.68024 c -0.92466,0.86897 -1.76497,1.84372 -2.76793,2.62181 -0.45119,0.22998 -0.96595,0.15244 -1.43677,0.0633 -0.51774,0.0271 -0.76377,0.60468 -1.1462,0.89002 -0.43439,0.49293 -1.00921,0.8811 -1.33803,1.4528 0.0588,0.63642 0.51079,1.16316 0.72374,1.75955 1.14473,2.56612 1.87579,5.33283 2.06541,8.13884 0.0839,2.18771 0.0889,4.40383 -0.39497,6.56886 -0.45194,2.32334 -1.27955,4.56018 -2.35521,6.6649 -0.18371,0.5875 0.5106,0.8888 0.81108,1.28496 0.50823,0.44871 0.91035,1.03968 1.49752,1.3826 0.52123,-0.0459 1.08759,-0.2148 1.58145,0.0668 1.01315,0.75188 1.81733,1.75905 2.7556,2.59372 0.43273,0.32751 0.81698,-0.16943 0.9769,-0.54301 1.28883,-2.42397 2.37247,-4.96543 3.06206,-7.62752 1.06752,-3.99676 1.32898,-8.19494 0.90617,-12.30399 -0.5157,-4.51092 -1.94117,-8.92103 -4.19295,-12.86535 -0.17708,-0.25437 -0.48546,-0.31627 -0.74787,-0.14834 z"
         id="path935"
         transform="translate(-92.469363,-306.39442)" />
      <path
         style="opacity:1;vector-effect:none;fill:#ffffff;fill-opacity:1;stroke:none;stroke-width:18.89763832;stroke-linecap:round;stroke-linejoin:miter;stroke-miterlimit:4;stroke-dasharray:none;stroke-dashoffset:0;stroke-opacity:1"
         d="m 168.81852,333.36457 c -0.8557,0.71799 -1.5969,1.57711 -2.40737,2.35066 -0.72356,0.76408 -1.52537,1.46906 -2.16655,2.3035 -0.21543,0.55544 0.40119,0.92872 0.70524,1.29612 0.70822,0.66564 1.36358,1.40946 2.14865,1.98187 0.567,0.17092 0.87225,-0.47917 1.2596,-0.76355 1.23422,-1.22855 2.49656,-2.43359 3.66895,-3.72124 0.31608,-0.54122 -0.33342,-0.91656 -0.62592,-1.27798 -0.71765,-0.70549 -1.39623,-1.46911 -2.15886,-2.11714 -0.12751,-0.11464 -0.27074,-0.058 -0.42374,-0.0522 z"
         id="path937"
         transform="translate(-92.469363,-306.39442)" />
      <path
         style="opacity:1;vector-effect:none;fill:#ffffff;fill-opacity:1;stroke:none;stroke-width:18.89763832;stroke-linecap:round;stroke-linejoin:miter;stroke-miterlimit:4;stroke-dasharray:none;stroke-dashoffset:0;stroke-opacity:1"
         d="m 156.44489,362.54666 c -0.44463,0.34173 -0.8587,0.75637 -1.21456,1.18555 -0.29398,0.52962 0.40445,0.86949 0.685,1.22461 2.61187,2.57758 5.17797,5.20443 7.83332,7.73625 0.53625,0.2905 0.89985,-0.3226 1.24834,-0.62439 0.30491,-0.26188 0.73815,-0.69639 0.38008,-1.09307 -2.79896,-2.77299 -5.59792,-5.54598 -8.39689,-8.31896 -0.17306,-0.12606 -0.32612,-0.15602 -0.53529,-0.10999 z"
         id="path965"
         transform="translate(-92.469363,-306.39442)" />
      <path
         style="opacity:1;vector-effect:none;fill:#ffffff;fill-opacity:1;stroke:none;stroke-width:18.89763832;stroke-linecap:round;stroke-linejoin:miter;stroke-miterlimit:4;stroke-dasharray:none;stroke-dashoffset:0;stroke-opacity:1"
         d="m 167.09539,371.47686 c -0.58701,0.25948 -0.97393,0.83015 -1.44982,1.2455 -0.50264,0.54135 -1.08167,1.03127 -1.48544,1.65339 -0.18147,0.56777 0.45205,0.9147 0.74502,1.30484 1.22358,1.25414 2.44563,2.51457 3.7384,3.69709 0.52892,0.31337 0.90337,-0.3146 1.25578,-0.60459 0.68592,-0.71844 1.48115,-1.35636 2.04263,-2.1806 0.2614,-0.56051 -0.38322,-0.94365 -0.67893,-1.3227 -1.2251,-1.25684 -2.42885,-2.54326 -3.74863,-3.70119 -0.12189,-0.0936 -0.27054,-0.10799 -0.41901,-0.0917 z"
         id="path967"
         transform="translate(-92.469363,-306.39442)" />
      <path
         style="opacity:1;vector-effect:none;fill:#ffffff;fill-opacity:1;stroke:none;stroke-width:18.89763832;stroke-linecap:round;stroke-linejoin:miter;stroke-miterlimit:4;stroke-dasharray:none;stroke-dashoffset:0;stroke-opacity:1"
         d="m 163.80179,340.02748 c -0.8698,0.7306 -1.62405,1.60359 -2.44917,2.38924 -1.81968,1.83662 -3.67821,3.64427 -5.47358,5.49902 -0.34405,0.51104 0.30493,0.91068 0.57245,1.28812 0.23313,0.3218 0.68633,0.69761 1.06324,0.34732 2.59998,-2.60201 5.23919,-5.17433 7.81551,-7.79397 0.35628,-0.50988 -0.30697,-0.88662 -0.60068,-1.22441 -0.26038,-0.24547 -0.51525,-0.63415 -0.92777,-0.50532 z"
         id="path969"
         transform="translate(-92.469363,-306.39442)" />
      <path
         style="opacity:1;vector-effect:none;fill:#ffffff;fill-opacity:1;stroke:none;stroke-width:18.89763832;stroke-linecap:round;stroke-linejoin:miter;stroke-miterlimit:4;stroke-dasharray:none;stroke-dashoffset:0;stroke-opacity:1"
         d="m 141.42147,349.90199 c -0.67099,0.53542 -1.04051,1.35887 -1.43274,2.10638 -0.34484,0.86901 -0.6909,1.77224 -0.74689,2.71318 0.052,0.58663 0.74806,0.57382 1.18649,0.56181 1.43866,-0.009 2.88447,0.008 4.31852,-0.0405 0.52318,-0.11072 0.48451,-0.76462 0.74228,-1.14067 0.25889,-0.60063 -0.47762,-0.93432 -0.78621,-1.3357 -0.93771,-0.92236 -1.84636,-1.88366 -2.80228,-2.78165 -0.14522,-0.12418 -0.3028,-0.10801 -0.47917,-0.0829 z"
         id="path947"
         transform="translate(-92.469363,-306.39442)" />
      <path
         style="opacity:1;vector-effect:none;fill:#ffffff;fill-opacity:1;stroke:none;stroke-width:18.89763832;stroke-linecap:round;stroke-linejoin:miter;stroke-miterlimit:4;stroke-dasharray:none;stroke-dashoffset:0;stroke-opacity:1"
         d="m 147.1635,346.58743 c -1.6285,0.27088 -3.22802,0.91005 -4.50524,1.96839 -0.33208,0.37549 0.0506,0.81477 0.34405,1.06451 1.0605,1.06613 2.08974,2.17116 3.22909,3.15354 0.4736,0.26077 0.9423,-0.2136 1.39858,-0.31986 0.52703,-0.32268 0.23802,-1.029 0.31222,-1.53669 -0.0364,-1.23987 0.0738,-2.48889 -0.0538,-3.72345 -0.0561,-0.3488 -0.36049,-0.6362 -0.72494,-0.60644 z"
         id="path949"
         transform="translate(-92.469363,-306.39442)" />
      <path
         style="opacity:1;vector-effect:none;fill:#ffffff;fill-opacity:1;stroke:none;stroke-width:18.89763832;stroke-linecap:round;stroke-linejoin:miter;stroke-miterlimit:4;stroke-dasharray:none;stroke-dashoffset:0;stroke-opacity:1"
         d="m 149.25175,346.55956 c -0.49434,0.33986 -0.21652,1.02301 -0.28928,1.5267 0.0317,1.31292 -0.0662,2.63555 0.0633,3.94282 0.12806,0.51956 0.76475,0.51881 1.15776,0.73789 0.58482,0.22265 0.93847,-0.43408 1.32927,-0.7421 0.93389,-0.94272 1.90868,-1.85459 2.75783,-2.87519 0.29521,-0.49665 -0.28043,-0.84779 -0.63702,-1.07501 -1.20892,-0.84944 -2.64102,-1.35799 -4.0998,-1.55654 -0.094,0.0138 -0.18801,0.0276 -0.28201,0.0414 z"
         id="path951"
         transform="translate(-92.469363,-306.39442)" />
      <path
         style="opacity:1;vector-effect:none;fill:#ffffff;fill-opacity:1;stroke:none;stroke-width:18.89763832;stroke-linecap:round;stroke-linejoin:miter;stroke-miterlimit:4;stroke-dasharray:none;stroke-dashoffset:0;stroke-opacity:1"
         d="m 148.44531,353.44073 c -1.34019,-0.0172 -2.51442,1.26857 -2.33561,2.6064 0.0613,1.40287 1.56189,2.50099 2.91689,2.11932 1.26212,-0.26094 2.13078,-1.64532 1.78873,-2.89198 -0.24652,-1.07013 -1.2676,-1.87283 -2.37001,-1.83374 z"
         id="path953"
         transform="translate(-92.469363,-306.39442)" />
      <path
         style="opacity:1;vector-effect:none;fill:#ffffff;fill-opacity:1;stroke:none;stroke-width:18.89763832;stroke-linecap:round;stroke-linejoin:miter;stroke-miterlimit:4;stroke-dasharray:none;stroke-dashoffset:0;stroke-opacity:1"
         d="m 155.22006,349.88991 c -0.73139,0.54417 -1.312,1.28129 -1.98303,1.90271 -0.57874,0.62803 -1.26903,1.17301 -1.77534,1.85495 -0.13226,0.46312 0.25123,0.89626 0.36279,1.34353 0.27053,0.56814 0.97299,0.28289 1.45321,0.31938 1.33145,-0.0386 2.67911,0.009 4.01234,-0.0356 0.59049,-0.0959 0.41745,-0.78433 0.3305,-1.20166 -0.29708,-1.46214 -0.91314,-2.88408 -1.87579,-4.03087 -0.16238,-0.13966 -0.31247,-0.18164 -0.52468,-0.15241 z"
         id="path955"
         transform="translate(-92.469363,-306.39442)" />
      <path
         style="opacity:1;vector-effect:none;fill:#ffffff;fill-opacity:1;stroke:none;stroke-width:18.89763832;stroke-linecap:round;stroke-linejoin:miter;stroke-miterlimit:4;stroke-dasharray:none;stroke-dashoffset:0;stroke-opacity:1"
         d="m 153.99942,356.3136 c -0.63901,0.0458 -1.31695,-0.0881 -1.93177,0.12467 -0.39885,0.26373 -0.39349,0.82411 -0.62543,1.2088 -0.13328,0.5978 0.5626,0.88994 0.86849,1.30032 0.8951,0.84149 1.68591,1.79834 2.64966,2.56383 0.4229,0.32892 1.02146,0.0645 1.20202,-0.40408 0.80751,-1.30094 1.46259,-2.76034 1.55605,-4.304 -0.16766,-0.60811 -0.91421,-0.44154 -1.38833,-0.48331 -0.77685,-0.009 -1.55381,-0.006 -2.33069,-0.006 z"
         id="path957"
         transform="translate(-92.469363,-306.39442)" />
      <path
         style="opacity:1;vector-effect:none;fill:#ffffff;fill-opacity:1;stroke:none;stroke-width:18.89763832;stroke-linecap:round;stroke-linejoin:miter;stroke-miterlimit:4;stroke-dasharray:none;stroke-dashoffset:0;stroke-opacity:1"
         d="m 150.35919,358.75501 c -0.22034,0.0497 -0.30838,0.13724 -0.54675,0.21739 -0.40954,0.0988 -0.91413,0.33783 -0.80056,0.84657 0.0645,1.52663 0.056,3.04538 0.0971,4.57178 0.0297,0.52146 0.62101,0.74576 1.06219,0.57117 1.50284,-0.30562 2.98513,-0.90818 4.16845,-1.89347 0.41636,-0.41627 -0.12089,-0.87092 -0.42711,-1.15225 -1.05924,-1.01452 -2.02986,-2.13142 -3.16697,-3.05971 -0.11432,-0.0749 -0.24956,-0.11253 -0.38633,-0.10148 z"
         id="path959"
         transform="translate(-92.469363,-306.39442)" />
      <path
         style="opacity:1;vector-effect:none;fill:#ffffff;fill-opacity:1;stroke:none;stroke-width:18.89763832;stroke-linecap:round;stroke-linejoin:miter;stroke-miterlimit:4;stroke-dasharray:none;stroke-dashoffset:0;stroke-opacity:1"
         d="m 146.20082,358.83368 c -1.18612,1.19584 -2.40416,2.37012 -3.56324,3.58698 -0.32751,0.42677 0.1723,0.81584 0.52746,0.99396 1.25589,0.89716 2.74312,1.45044 4.26701,1.64512 0.52248,0.0371 0.58323,-0.57459 0.55366,-0.96011 0.0213,-1.51534 0.0387,-3.03795 0.002,-4.54912 -0.11213,-0.55509 -0.81446,-0.45821 -1.19445,-0.7503 -0.20293,-0.0958 -0.40061,-0.0838 -0.59207,0.0335 z"
         id="path961"
         transform="translate(-92.469363,-306.39442)" />
      <path
         style="opacity:1;vector-effect:none;fill:#ffffff;fill-opacity:1;stroke:none;stroke-width:18.89763832;stroke-linecap:round;stroke-linejoin:miter;stroke-miterlimit:4;stroke-dasharray:none;stroke-dashoffset:0;stroke-opacity:1"
         d="m 139.46898,356.39437 c -0.41957,0.38767 -0.11396,0.99929 -0.0458,1.47937 0.32325,1.34948 0.90176,2.66403 1.8178,3.71566 0.45802,0.36576 0.88631,-0.19228 1.19266,-0.48392 1.01636,-0.99168 2.05943,-1.96584 3.04523,-2.98267 0.32139,-0.47964 -0.24237,-0.93417 -0.29741,-1.42202 -0.29799,-0.5392 -1.01764,-0.32563 -1.52015,-0.38454 -1.32569,0.006 -2.65825,-0.0258 -3.97955,0.0148 -0.0709,0.0211 -0.14183,0.0422 -0.21274,0.0633 z"
         id="path963"
         transform="translate(-92.469363,-306.39442)" />
      <path
         style="opacity:1;vector-effect:none;fill:#ffffff;fill-opacity:1;stroke:none;stroke-width:18.89763832;stroke-linecap:round;stroke-linejoin:miter;stroke-miterlimit:4;stroke-dasharray:none;stroke-dashoffset:0;stroke-opacity:1"
         d="m 142.07007,333.05111 c -2.71341,-0.0626 -5.40804,0.53387 -7.9399,1.47923 -5.96028,2.24898 -10.91426,7.0375 -13.30129,12.95108 -0.1613,0.49374 -0.50189,0.96746 -0.4777,1.49822 0.1821,0.58874 0.87741,0.38018 1.3124,0.2797 1.97812,-0.46082 3.96493,-0.91531 5.92778,-1.42166 0.53058,-0.24754 0.26872,-0.93453 0.33886,-1.39669 0.0279,-0.94983 -0.0168,-1.91693 0.0566,-2.85598 0.20841,-0.58889 0.78757,-1.03562 1.42955,-0.94368 1.56799,-0.006 3.15587,-0.0888 4.72908,0.0189 0.73963,0.0926 1.19343,0.91708 1.08617,1.60845 -0.003,8.05614 0.0583,16.14931 -0.0104,24.183 0.0595,0.61455 -0.18069,1.36285 -0.82211,1.59846 -1.26854,0.16539 -2.56527,0.0576 -3.85157,0.088 -0.63851,-0.0434 -1.32648,0.0792 -1.9298,-0.16819 -0.45784,-0.29741 -0.72336,-0.8216 -0.65817,-1.36867 -0.0464,-1.10051 0.0212,-2.22156 -0.0765,-3.31851 -0.16762,-0.51366 -0.84732,-0.41125 -1.26733,-0.58096 -1.91393,-0.44842 -3.81987,-0.93539 -5.74071,-1.35223 -0.48559,-0.0402 -0.69245,0.52708 -0.46564,0.89785 1.64985,4.537 4.69103,8.56583 8.66669,11.31638 4.38452,3.0713 9.85173,4.56701 15.18891,4.11779 4.97469,-0.35125 9.79556,-2.40661 13.54559,-5.68411 0.87441,-0.80299 1.72253,-1.6447 2.53358,-2.5062 0.35658,-0.51419 -0.31918,-0.89112 -0.61075,-1.2315 -1.82894,-1.81185 -3.62874,-3.66274 -5.47577,-5.45034 -0.48993,-0.3027 -0.96577,0.23146 -1.43174,0.37723 -1.27665,0.58016 -2.66625,0.92099 -4.07377,0.88611 -1.5133,0.066 -3.03156,-0.22802 -4.40525,-0.86863 -3.00985,-1.33454 -5.286,-4.17857 -5.90775,-7.41449 -0.89697,-4.086 1.10368,-8.57051 4.63004,-10.77072 2.29303,-1.42975 5.22616,-1.91866 7.80463,-1.25937 1.29361,0.29706 2.48295,0.8651 3.58752,1.57465 0.55535,0.21599 0.85805,-0.47105 1.23319,-0.75363 1.49019,-1.52602 3.06128,-2.97725 4.48731,-4.56371 0.3267,-0.3296 0.18099,-0.83182 -0.15031,-1.09401 -1.54561,-1.62191 -3.19932,-3.16546 -5.12241,-4.33396 -3.13104,-1.97156 -6.73941,-3.20567 -10.43007,-3.50136 -0.80216,-0.0425 -1.60593,-0.0365 -2.40893,-0.0365 z"
         id="path941"
         transform="translate(-92.469363,-306.39442)" />
      <path
         style="opacity:1;vector-effect:none;fill:#ffffff;fill-opacity:1;stroke:none;stroke-width:18.89763832;stroke-linecap:round;stroke-linejoin:miter;stroke-miterlimit:4;stroke-dasharray:none;stroke-dashoffset:0;stroke-opacity:1"
         d="m 129.17559,343.76746 c -0.41708,0.39987 -0.15213,1.04295 -0.22677,1.55518 -0.0251,1.04273 0.0539,2.0873 -0.0587,3.1169 -0.11401,0.27187 -0.51979,0.22684 -0.74466,0.34983 -4.45656,1.15153 -8.94589,2.16697 -13.41905,3.24218 -0.54867,0.26143 -0.36298,0.97677 -0.41597,1.46366 -0.005,2.27704 -0.0291,4.5611 0.009,6.83381 0.11794,0.5769 0.85101,0.4746 1.28663,0.64614 4.29201,1.04241 8.59248,2.05426 12.87833,3.11952 0.42995,0.0694 0.56714,0.53222 0.51925,0.91028 0.0384,1.24353 -0.0421,2.50054 0.0441,3.73536 0.1711,0.57701 0.89947,0.32449 1.34791,0.37899 1.11187,-0.0241 2.23776,0.0481 3.34089,-0.036 0.57701,-0.17111 0.3245,-0.89948 0.37899,-1.34791 -0.012,-2.03784 0.024,-4.08266 -0.018,-6.11613 -0.11011,-0.61315 -0.85202,-0.40801 -1.2978,-0.44753 -1.00686,-0.0505 -2.02803,0.0679 -3.02137,-0.12305 -0.49449,-0.33585 -0.24765,-0.99699 -0.30896,-1.5019 0.009,-2.47501 -0.067,-4.96246 0.025,-7.42707 0.30714,-0.57736 1.03629,-0.44911 1.57673,-0.48011 0.88686,-0.0383 1.78733,0.0416 2.66543,-0.0446 0.57701,-0.17111 0.3245,-0.89948 0.37899,-1.34791 -0.012,-2.03961 0.024,-4.08619 -0.018,-6.12144 -0.11098,-0.61615 -0.85579,-0.40511 -1.30277,-0.4395 -1.15403,0.0236 -2.32184,-0.0475 -3.46716,0.036 -0.0507,0.0151 -0.10148,0.0302 -0.15222,0.0453 z"
         id="path943"
         transform="translate(-92.469363,-306.39442)" />
      <path
         style="opacity:1;vector-effect:none;fill:#ffffff;fill-opacity:1;stroke:none;stroke-width:18.89763832;stroke-linecap:round;stroke-linejoin:miter;stroke-miterlimit:4;stroke-dasharray:none;stroke-dashoffset:0;stroke-opacity:1"
         d="m 142.3141,322.91999 c -8.0513,0.01 -16.03868,3.08411 -22.04856,8.43573 -6.1132,5.37622 -10.12144,13.06392 -11.0387,21.15234 -1.01741,8.55801 1.41743,17.47968 6.71064,24.28997 3.55087,4.59567 8.28989,8.27457 13.66613,10.48644 4.41158,1.83944 9.22329,2.74327 14.00213,2.55686 7.96393,-0.2717 15.77493,-3.51826 21.59678,-8.95648 0.49933,-0.51817 1.11526,-0.95614 1.49126,-1.57166 0.0137,-0.57795 -0.62858,-0.84641 -0.93745,-1.26195 -0.86399,-0.91335 -1.82583,-1.72726 -2.58637,-2.72354 -0.19768,-0.4847 -0.12655,-1.0163 -0.0484,-1.50964 -0.12985,-0.48284 -0.6611,-0.75195 -0.96663,-1.13606 -0.26543,-0.30534 -0.69827,-0.75168 -1.1012,-0.39142 -1.47805,1.50449 -2.95927,3.0207 -4.72521,4.20179 -3.15931,2.18054 -6.78981,3.59852 -10.58726,4.12211 -2.82917,0.35822 -5.69644,0.29611 -8.48226,-0.32885 -3.95297,-0.83647 -7.68262,-2.71557 -10.75233,-5.34818 -1.54453,-1.39988 -2.986,-2.85873 -4.13616,-4.58172 -1.55076,-2.21496 -2.67546,-4.66611 -3.456,-7.24814 -0.27924,-0.512 -0.97719,-0.40777 -1.45756,-0.60511 -1.19777,-0.32063 -2.43026,-0.55328 -3.5937,-0.9804 -0.45799,-0.27159 -0.65287,-0.79681 -0.59774,-1.30769 -0.0126,-2.62071 -0.0497,-5.27198 0.0224,-7.89208 -0.0347,-0.56265 0.35072,-1.10669 0.91915,-1.2014 1.43551,-0.4344 2.95485,-0.72455 4.41679,-1.14086 0.47267,-0.25566 0.41214,-0.90904 0.62719,-1.35095 1.14092,-3.35795 2.99557,-6.50312 5.41699,-9.0501 4.35385,-4.62277 10.56927,-7.47166 16.91303,-7.63249 1.92952,-0.023 3.83963,0.036 5.72218,0.46438 4.55909,0.91447 8.89324,3.19453 12.21008,6.49558 0.57362,0.51935 1.07398,1.12384 1.62984,1.65149 0.50327,0.32429 0.86523,-0.34446 1.20182,-0.6245 0.33994,-0.39362 1.00841,-0.75179 0.76894,-1.36684 -0.15999,-0.61046 0.0663,-1.26828 0.55091,-1.66788 0.96469,-1.04896 2.01588,-2.02261 2.98177,-3.06475 0.35708,-0.51885 -0.32789,-0.89099 -0.62638,-1.2267 -4.7683,-4.73421 -10.99126,-7.96719 -17.60564,-9.14877 -2.01127,-0.36591 -4.05615,-0.54678 -6.10045,-0.53853 z"
         id="path939"
         transform="translate(-92.469363,-306.39442)" />
      <path
         id="path832"
         d="m 80.07,67.88 a 34.89,34.89 0 0 0 0,-35.76 l 0.47,-0.47 a 2.17,2.17 0 0 0 0,-3.07 L 78,26.05 a 2.17,2.17 0 0 0 -2.75,-0.27 35,35 0 1 0 0,48.44 2.21,2.21 0 0 0 1.21,0.37 A 2.16,2.16 0 0 0 78,74 l 2.53,-2.53 A 2.17,2.17 0 0 0 81.17,69.93 2.15,2.15 0 0 0 80.53,68.4 Z M 83,50 a 33,33 0 0 1 -4.37,16.43 l -2.28,-2.28 a 2.16,2.16 0 0 0 -2.26,-0.49 l -2,-2 a 24.81,24.81 0 0 0 0,-23.24 l 2,-2 a 2.18,2.18 0 0 0 2.27,-0.5 l 2.28,-2.28 A 33,33 0 0 1 83,50 Z M 69.58,64 v 0 l -6.42,-6.43 c 0.18,-0.16 0.35,-0.33 0.51,-0.49 v 0 l 0.48,-0.5 6,5.95 2.41,2.41 -1,1 z M 27.06,45 v 0 l 9.14,-2.21 a 1,1 0 0 0 0.76,-1 v -4 h 4.24 v 7 H 37.73 A 1.25,1.25 0 0 0 36.48,46 v 8 a 1.25,1.25 0 0 0 1.25,1.25 h 3.47 v 7 H 37 v -4 a 1,1 0 0 0 -0.76,-1 L 27.1,55.04 v 0 l -4.8,-1.15 v -7.78 z m 14.14,1.79 v 6.42 H 38.48 V 46.79 Z M 35,59 v 3.41 a 1.83,1.83 0 0 0 1.83,1.83 h 4.58 a 1.83,1.83 0 0 0 1.83,-1.83 V 37.57 A 1.83,1.83 0 0 0 41.41,35.74 H 36.79 A 1.83,1.83 0 0 0 35,37.57 V 41 l -6.71,1.6 a 22.92,22.92 0 0 1 39.23,-7.37 l -5.31,5.31 A 10.86,10.86 0 0 0 56,38.59 v 0 a 10.81,10.81 0 0 0 -7.58,3.14 v 0 0.05 a 10.79,10.79 0 0 0 -3.14,7.6 v 0 a 10.8,10.8 0 0 0 3.16,7.64 v 0 a 10.79,10.79 0 0 0 13.06,1.73 l 6,6 A 22.92,22.92 0 0 1 28.29,57.4 Z M 69.57,36 v 0 l 1.93,-1.93 1,1 -7.85,7.84 V 42.86 C 64.52,42.68 64.35,42.52 64.2,42.34 64.05,42.16 63.92,41.99 63.76,41.83 Z M 47.25,50.42 h 5 a 3.68,3.68 0 0 0 0.4,1 L 49.11,54.9 A 8.8,8.8 0 0 1 47.25,50.42 Z M 61.5,42.52 58,46 a 3.68,3.68 0 0 0 -1,-0.4 v -5 a 8.69,8.69 0 0 1 4.5,1.92 z m 1.75,12 q -0.16,0.23 -0.33,0.42 l -3.53,-3.52 a 3.71,3.71 0 0 0 0.41,-1 h 5 a 8.78,8.78 0 0 1 -1.55,4.06 z m -5.87,-3.71 v 0 a 1.89,1.89 0 0 1 -1.35,0.56 1.93,1.93 0 1 1 1.92,-1.92 1.91,1.91 0 0 1 -0.56,1.35 z m 2.42,-2.35 a 3.63,3.63 0 0 0 -0.41,-1 l 3.53,-3.52 a 8.17,8.17 0 0 1 0.73,1.06 8.44,8.44 0 0 1 1.13,3.41 z M 55,45.64 a 3.61,3.61 0 0 0 -1,0.4 L 50.48,42.52 A 8.72,8.72 0 0 1 55,40.65 Z m -5.9,-1.71 3.52,3.52 a 3.61,3.61 0 0 0 -0.4,1 h -5 a 8.72,8.72 0 0 1 1.9,-4.52 z m 4.93,8.86 a 3.61,3.61 0 0 0 1,0.4 v 5 a 8.81,8.81 0 0 1 -4.49,-1.87 z m 3,0.4 a 3.68,3.68 0 0 0 1,-0.4 l 3.53,3.53 -0.44,0.34 a 8.81,8.81 0 0 1 -4,1.51 z m 8.32,1.73 a 10.67,10.67 0 0 0 1.5,-5.5 v 0 A 10.6,10.6 0 0 0 65.74,44.7 l 4.84,-4.83 a 23,23 0 0 1 0,20.28 z M 76.47,27.41 a 0.18,0.18 0 0 1 0.12,0.05 L 79.13,30 a 0.16,0.16 0 0 1 0,0.24 l -1,1 v 0 l -3.18,3.18 a 0.18,0.18 0 0 1 -0.25,0 v 0 L 72.21,32 v -0.05 a 0.2,0.2 0 0 1 0,-0.13 0.19,0.19 0 0 1 0,-0.12 l 4.19,-4.19 a 0.18,0.18 0 0 1 0.07,-0.1 z M 50,83 A 33,33 0 1 1 73.82,27.16 l -3.08,3.08 a 2.16,2.16 0 0 0 -0.27,0.33 2.12,2.12 0 0 0 -0.36,1.2 2.3,2.3 0 0 0 0.13,0.74 l -1.3,1.3 A 24.91,24.91 0 0 0 26,43.15 L 21.71,44.2 A 1.8,1.8 0 0 0 20.3,46 v 8 a 1.8,1.8 0 0 0 1.4,1.78 l 4.3,1.08 a 24.91,24.91 0 0 0 42.9,9.33 l 1.3,1.3 a 2.26,2.26 0 0 0 -0.13,0.74 2.19,2.19 0 0 0 0.34,1.17 v 0 a 2.24,2.24 0 0 0 0.27,0.34 l 3.08,3.08 A 33.08,33.08 0 0 1 50,83 Z m 29.13,-13 -2.54,2.54 a 0.16,0.16 0 0 1 -0.24,0 l -0.43,-0.43 -3.76,-3.76 c -0.07,-0.07 -0.07,-0.18 0,-0.3 l 2.43,-2.43 v -0.05 a 0.16,0.16 0 0 1 0.12,0 0.17,0.17 0 0 1 0.13,0 l 3.18,3.18 v 0 l 1,1 a 0.17,0.17 0 0 1 0,0.24 z" />
      <path
         style="opacity:1;vector-effect:none;fill:#ffffff;fill-opacity:1;stroke:none;stroke-width:18.89763832;stroke-linecap:round;stroke-linejoin:miter;stroke-miterlimit:4;stroke-dasharray:none;stroke-dashoffset:0;stroke-opacity:1"
         d="m 130.69081,352.7957 c -0.41707,0.39987 -0.15212,1.04295 -0.22676,1.55518 0.0121,1.76601 -0.0241,3.53904 0.018,5.30068 0.11098,0.61615 0.8558,0.40512 1.30278,0.43951 0.6991,-0.0428 1.42411,0.0924 2.10415,-0.0813 0.41708,-0.39988 0.15213,-1.04295 0.22677,-1.55519 -0.0121,-1.766 0.0241,-3.53904 -0.018,-5.30068 -0.11098,-0.61615 -0.85579,-0.40511 -1.30277,-0.4395 -0.69585,0.0427 -1.42903,-0.0924 -2.10416,0.0813 z"
         id="path945"
         transform="translate(-92.469363,-306.39442)" />
    </g>
  </g>
</svg>
